<?xml version="1.0" standalone="no"?><!DOCTYPE svg PUBLIC "-//W3C//DTD SVG 1.1//EN"
        "http://www.w3.org/Graphics/SVG/1.1/DTD/svg11.dtd">
<svg t="1594833114442" class="icon" viewBox="0 0 1024 1024" version="1.1" xmlns="http://www.w3.org/2000/svg" p-id="4514"
     width="128" height="128">
    <path d="M1008.216721 15.877778a53.693825 53.693825 0 0 0-76.156752 0L738.531598 207.552155l1.279996-154.618497c0.511998-21.759929-16.830945-40.702868-38.526875-40.254869H673.637809c-21.758929 0.575998-39.677871 13.567956-40.317869 35.262885l-1.087996 282.229082c0 0.511998 1.471995 0.767998 1.471995 1.151997l-2.175993 19.711935c-0.191999 10.942964 2.303993 20.734933 9.40797 27.70991 6.974977 7.039977 16.766945 11.327963 27.64691 11.007965l19.646936-0.383999c0.383999 0 0.639998-0.191999 1.087996-0.255999l281.269086 1.663994a41.598865 41.598865 0 0 0 40.254869-40.317869v-27.64691a44.285856 44.285856 0 0 0-45.182853-40.318869l-149.178515-0.511998 191.737376-189.944382a53.757825 53.757825 0 0 0 0-76.157753zM15.743949 1008.032552a53.757825 53.757825 0 0 0 76.157752 0L285.493072 817.510171l-1.215996 151.098509c-0.511998 21.759929 16.766945 40.766867 38.462874 40.254869h29.309905c21.759929-0.575998 39.742871-13.439956 40.254869-35.262885l1.087997-279.98909c0-0.383999-1.407995-0.639998-1.407996-1.023996l2.047994-19.711936c0.255999-10.942964-2.303993-20.798932-9.34297-27.70991a37.118879 37.118879 0 0 0-27.51991-11.071964l-19.709936 0.511998-1.088997 0.128L55.549819 633.070771a41.726864 41.726864 0 0 0-40.254869 40.317869v27.77491c3.327989 25.599917 23.487924 39.038873 45.182853 38.526875l148.729517 0.511998L15.743949 931.7468a54.077824 54.077824 0 0 0 0 76.285752z m616.360995-314.355978l1.151997 277.877097c0.511998 21.759929 18.55994 34.686887 40.253869 35.198885h27.64691c21.695929 0.511998 39.039873-18.43194 38.462875-40.190869l-1.215996-150.138512 193.65637 191.737377c20.991932 21.118931 55.037821 21.118931 76.093753 0a53.949825 53.949825 0 0 0 0-76.285752l-193.593371-191.609377 146.874522-0.574998c21.759929 0.511998 41.854864-12.863958 45.182854-38.526875v-27.77491a41.726864 41.726864 0 0 0-40.25487-40.317869l-277.173098 1.663995-1.151996-0.128-19.646937-0.511998a37.118879 37.118879 0 0 0-27.58291 11.070964c-7.103977 6.911978-9.599969 16.767945-9.407969 27.71091l2.111993 19.711936c0.064 0.447999-1.407995 0.703998-1.407996 1.087996zM207.608325 281.979913l-147.066522 0.639998a44.157856 44.157856 0 0 0-45.182853 40.189869v27.71191a41.598865 41.598865 0 0 0 40.254869 40.317869l280.821087-1.727994c0.383999 0.064 0.639998 0.255999 1.087996 0.255999l19.646937 0.383999a37.054879 37.054879 0 0 0 27.51991-11.006965c7.102977-7.039977 9.662969-16.831945 9.406969-27.774909l-2.111993-19.711936c0-0.383999 1.471995-0.639998 1.471995-1.087997L392.368724 48.004674c-0.447999-21.759929-18.43094-34.814887-40.253869-35.198886h-29.246905c-21.759929-0.511998-39.038873 18.43194-38.526875 40.12687l1.279996 153.466501L91.900701 15.812779a53.757825 53.757825 0 0 0-76.157752 0 54.077824 54.077824 0 0 0 0 76.285751l191.801376 189.880383z"
          p-id="4515"></path>
</svg>
