<?xml version="1.0" standalone="no"?><!DOCTYPE svg PUBLIC "-//W3C//DTD SVG 1.1//EN"
        "http://www.w3.org/Graphics/SVG/1.1/DTD/svg11.dtd">
<svg t="1594879981757" class="icon" viewBox="0 0 1024 1024" version="1.1" xmlns="http://www.w3.org/2000/svg" p-id="9351"
     width="128" height="128">
    <path d="M52.37195049 190.15564421h919.54052676c25.38733078 0 45.96812001-20.58078925 45.96812001-45.96811999s-20.58078925-45.96812001-45.96812001-45.96812H52.37195049c-25.38733078 0-45.96812001 20.58078925-45.96812001 45.96812s20.58078925 45.96812001 45.96812001 45.96811999z m-0.0129285 366.62017767h565.41936817c25.38733078 0 45.96812001-20.58078925 45.96812001-45.96811998s-20.58078925-45.96812001-45.96812001-45.96812004H52.35902199c-25.38733078 0-45.96812001 20.58078925-45.96812004 45.96812004s20.58078925 45.96812001 45.96812004 45.96811998z m919.55345526 276.71659046H52.37195049c-25.38733078 0-45.96812001 20.58078925-45.96812001 45.96812005s20.58078925 45.96812001 45.96812001 45.96812h919.54052676c25.38733078 0 45.96812001-20.58078925 45.96812001-45.96812s-20.58078925-45.96812001-45.96812001-45.96812005z m-182.4345398-92.2350328l229.8406001-229.84060005-229.8406001-229.84060009z"
          p-id="9352"></path>
</svg>
