<?xml version="1.0" standalone="no"?><!DOCTYPE svg PUBLIC "-//W3C//DTD SVG 1.1//EN" "http://www.w3.org/Graphics/SVG/1.1/DTD/svg11.dtd"><svg class="icon" width="200px" height="200.00px" viewBox="0 0 1024 1024" version="1.1" xmlns="http://www.w3.org/2000/svg"><path d="M743.168 85.333333c-24.618667-24.661333-68.010667-42.666667-102.826667-42.666666H238.933333C176.810667 42.666667 128 95.744 128 159.573333v704.853334C128 928.213333 176.896 981.333333 238.933333 981.333333h546.133334c62.08 0 110.933333-53.162667 110.933333-116.864V298.965333c0-34.986667-17.877333-78.336-42.538667-103.082666l-110.293333-110.506667z m-60.416 60.288l110.293333 110.506667c8.661333 8.746667 17.621333 30.421333 17.621334 42.837333V864.426667c0 18.090667-12.373333 31.530667-25.6 31.530666H238.933333c-13.226667 0-25.6-13.397333-25.6-31.573333V159.573333c0-18.218667 12.288-31.573333 25.6-31.573333h401.365334c12.16 0 33.834667 8.96 42.453333 17.621333z"  /><path d="M341.333333 554.666667h170.666667a42.666667 42.666667 0 0 0 0-85.333334H341.333333a42.666667 42.666667 0 0 0 0 85.333334zM341.333333 682.666667h341.333334a42.666667 42.666667 0 0 0 0-85.333334H341.333333a42.666667 42.666667 0 0 0 0 85.333334zM341.333333 810.666667h341.333334a42.666667 42.666667 0 0 0 0-85.333334H341.333333a42.666667 42.666667 0 0 0 0 85.333334zM853.333333 256h-127.786666A42.794667 42.794667 0 0 1 682.666667 213.12V85.333333a42.666667 42.666667 0 0 0-85.333334 0v127.786667A128.128 128.128 0 0 0 725.546667 341.333333H853.333333a42.666667 42.666667 0 0 0 0-85.333333z"  /><path d="M298.666667 256.426667C298.666667 232.576 317.568 213.333333 341.76 213.333333h84.48c23.808 0 43.093333 18.901333 43.093333 43.093334v84.48C469.333333 364.757333 450.432 384 426.24 384H341.76C317.909333 384 298.666667 365.098667 298.666667 340.906667V256.426667z"  /></svg>