<?xml version="1.0" standalone="no"?><!DOCTYPE svg PUBLIC "-//W3C//DTD SVG 1.1//EN" "http://www.w3.org/Graphics/SVG/1.1/DTD/svg11.dtd"><svg class="icon" width="200px" height="200.00px" viewBox="0 0 1024 1024" version="1.1" xmlns="http://www.w3.org/2000/svg"><path d="M786.4 872H237.6c-48 0-85.6-37.6-85.6-85.6V237.6c0-48 37.6-85.6 85.6-85.6h548.8c48 0 85.6 37.6 85.6 85.6v548.8c0 48-37.6 85.6-85.6 85.6zM237.6 200c-20.8 0-37.6 16.8-37.6 37.6v548.8c0 20.8 16.8 37.6 37.6 37.6h548.8c20.8 0 37.6-16.8 37.6-37.6V237.6c0-20.8-16.8-37.6-37.6-37.6H237.6z" fill="#999999" /><path d="M352 319.2v90.4h11.2c1.6-13.6 4.8-24.8 8.8-33.6 4-8.8 8.8-15.2 15.2-20 6.4-4.8 13.6-8 22.4-9.6s19.2-2.4 30.4-2.4h46.4v295.2c0 21.6-2.4 36-6.4 41.6-7.2 9.6-18.4 15.2-34.4 15.2H432v10.4h164V696h-13.6c-15.2 0-26.4-4-33.6-12-4.8-5.6-8-20.8-8-44.8v-296h54.4c11.2 0 20 0.8 28.8 3.2 8 2.4 15.2 6.4 20.8 11.2 5.6 5.6 10.4 12 13.6 20.8 3.2 8.8 6.4 18.4 7.2 31.2h6.4V319.2H352z" fill="#999999" /></svg>