<?xml version="1.0" standalone="no"?><!DOCTYPE svg PUBLIC "-//W3C//DTD SVG 1.1//EN"
        "http://www.w3.org/Graphics/SVG/1.1/DTD/svg11.dtd">
<svg t="1594833143089" class="icon" viewBox="0 0 1024 1024" version="1.1" xmlns="http://www.w3.org/2000/svg" p-id="5289"
     width="128" height="128">
    <path d="M951.552 683.52c2.048 17.472 4.352 37.12 7.04 58.88 2.688 21.76 5.184 43.968 7.552 66.752 2.304 22.784 4.864 45.44 7.552 67.84l7.04 60.8c3.968 31.488-9.728 46.208-41.216 44.16-16.768-1.28-35.712-3.2-56.768-5.504-21.12-2.368-42.688-4.864-64.832-7.552l-65.792-8c-21.76-2.688-41.728-5.056-59.776-7.04-19.456-1.984-31.808-7.552-37.184-16.64-5.376-8.96-2.368-19.2 9.024-30.592 7.36-6.72 16.448-15.936 27.136-27.648 10.752-11.712 19.776-21.248 27.136-28.608 7.36-8.064 9.728-15.36 7.04-22.08a80.64 80.64 0 0 0-16.064-23.168l-51.2-49.216c-15.488-14.72-32.576-31.808-51.328-51.2a231.808 231.808 0 0 1-12.032-13.12 48.64 48.64 0 0 1-9.024-15.552 32.96 32.96 0 0 1-1.024-18.048c1.344-6.4 5.696-13.248 13.056-20.608a253.44 253.44 0 0 0 10.048-10.56 90.88 90.88 0 0 1 8.064-8.064 177.28 177.28 0 0 0 20.096-20.608c13.376-13.376 25.792-19.072 37.12-17.024 11.392 1.984 23.808 9.664 37.184 23.04 13.44 13.44 27.136 27.008 41.216 40.704 14.08 13.76 29.824 29.312 47.232 46.72 12.736 12.096 23.616 20.48 32.64 25.152 9.024 4.672 17.92 2.688 26.624-6.016 6.016-6.016 13.568-13.248 22.592-21.632 9.088-8.32 16.96-15.872 23.68-22.592 11.328-11.392 21.568-15.744 30.592-13.056 9.024 2.688 14.592 12.736 16.64 30.08zM75.392 342.016c-1.92-17.408-4.288-36.992-7.04-58.752-2.624-21.76-5.12-44.032-7.488-66.816-2.368-22.784-4.864-45.44-7.552-67.84-2.688-22.4-4.992-42.688-7.04-60.8C44.352 70.4 46.464 58.304 52.864 51.584 59.2 44.928 70.4 42.24 86.4 43.584c16.768 1.28 35.712 3.2 56.768 5.504 21.12 2.368 42.752 4.864 64.832 7.552l65.792 8c21.76 2.688 41.728 5.056 59.776 7.04 20.096 2.048 32.64 7.552 37.696 16.64 5.056 8.96 1.856 19.2-9.6 30.592-6.656 6.72-14.848 15.36-24.576 26.112-9.664 10.752-18.24 19.776-25.6 27.136-8.064 8.064-10.688 15.36-8.064 22.144 2.688 6.656 8.384 14.4 17.088 23.04 8.704 9.408 16.96 17.6 24.64 24.64a1394.816 1394.816 0 0 1 45.696 43.712l25.152 25.152c3.968 3.968 7.872 8.704 11.52 14.08 3.712 5.312 6.4 11.008 8.064 17.024a33.856 33.856 0 0 1-0.512 19.136 49.152 49.152 0 0 1-13.056 20.096l-11.072 11.008a165.632 165.632 0 0 0-7.552 8.064 66.56 66.56 0 0 1-8.512 8l-11.072 12.096c-13.376 13.44-24.96 18.432-34.624 15.04-9.728-3.328-21.312-11.712-34.688-25.088a3818.88 3818.88 0 0 0-38.144-37.696c-12.096-11.712-26.88-26.24-44.224-43.712a132.288 132.288 0 0 0-32.192-25.088c-9.344-4.736-18.368-2.688-27.072 6.016a360.448 360.448 0 0 1-25.152 24.64c-10.688 9.664-19.392 17.92-26.112 24.576-11.392 11.392-21.44 15.744-30.144 13.056-8.704-2.688-14.08-12.736-16.064-30.08zM937.536 42.56c17.408-1.984 29.44 0.192 36.224 6.528 6.656 6.4 9.344 17.92 8 34.688-1.28 16.704-3.2 35.648-5.504 56.768-2.368 21.12-4.864 42.688-7.552 64.768l-8.064 65.856c-2.624 21.76-4.992 41.664-7.04 59.776-1.92 19.392-7.488 31.808-16.512 37.12-9.088 5.376-19.264 2.048-30.72-10.048-6.656-6.656-15.36-14.848-26.048-24.576a774.72 774.72 0 0 1-27.136-25.6c-8.064-7.424-15.424-9.92-22.144-7.552-6.656 2.304-14.4 7.872-23.04 16.576-18.112 18.048-34.048 34.496-47.744 49.216-13.76 14.72-30.016 31.488-48.768 50.24a99.712 99.712 0 0 1-14.08 11.52 56.832 56.832 0 0 1-17.088 8.064 33.856 33.856 0 0 1-19.072-0.512 46.08 46.08 0 0 1-20.096-14.08 253.44 253.44 0 0 0-10.56-10.048 199.68 199.68 0 0 1-8.512-8 199.68 199.68 0 0 0-8.576-8.064 141.504 141.504 0 0 1-11.52-12.032c-13.44-13.44-18.752-25.152-16.064-35.2 2.688-10.048 11.008-21.76 25.088-35.136l38.208-40.192c12.736-13.44 27.776-28.8 45.184-46.208 12.8-12.032 21.44-22.784 26.112-32.128 4.736-9.408 2.368-18.112-7.04-26.176a695.744 695.744 0 0 1-23.04-24.576 712.512 712.512 0 0 0-24.128-25.6c-11.392-11.392-15.744-21.44-13.056-30.208 2.624-8.704 12.672-14.08 30.08-16l58.816-7.04c21.76-2.688 44.16-5.248 67.328-7.552 23.04-2.368 45.696-4.864 67.84-7.552 22.08-2.688 42.176-5.056 60.224-7.04zM381.888 598.144c4.032 4.032 7.552 7.424 10.56 10.048 3.008 2.688 5.824 5.376 8.512 8.064l8.064 9.024 12.032 11.072c13.44 13.44 19.264 25.6 17.6 36.672-1.664 11.072-9.6 23.616-23.616 37.696-12.736 12.736-26.112 26.24-40.192 40.704-14.08 14.4-29.824 30.272-47.232 47.68-12.032 12.096-19.584 21.952-22.592 29.632-3.008 7.68-0.192 15.936 8.512 24.64 6.72 6.016 14.272 13.568 22.656 22.592 8.32 9.088 15.872 16.96 22.592 23.68 11.392 11.328 15.552 21.376 12.544 30.08-3.008 8.704-13.248 14.08-30.656 16.064-17.408 2.048-36.8 4.352-58.24 7.04-21.44 2.688-43.712 5.376-66.816 8.064l-68.352 8c-22.4 2.688-42.688 5.056-60.8 7.04-16.704 1.344-28.608-1.152-35.648-7.488-7.04-6.4-9.856-17.6-8.512-33.664 1.28-16.768 3.2-35.712 5.504-56.768 2.368-21.12 4.864-42.752 7.552-64.832l8-65.792c2.688-21.76 5.056-41.728 7.04-59.776 2.048-20.096 7.552-32.64 16.64-37.696 8.96-5.056 19.2-1.856 30.592 9.6 6.72 6.656 15.936 15.36 27.648 26.048 11.712 10.752 21.248 19.776 28.608 27.136 8.064 8.064 14.72 11.52 20.096 10.56 5.376-1.024 12.096-5.888 20.096-14.592 8.704-8.704 17.088-17.28 25.152-25.6 8-8.32 16-16.576 24.064-24.64 8.064-8 16.256-16.384 24.64-25.088 8.32-8.704 17.28-17.728 26.624-27.136 4.032-4.032 8.32-8.064 13.056-12.032a48.64 48.64 0 0 1 15.552-9.088 30.144 30.144 0 0 1 18.112-0.448c6.4 1.664 13.248 6.144 20.608 13.504z"
          p-id="5290"></path>
</svg>
