<?xml version="1.0" standalone="no"?><!DOCTYPE svg PUBLIC "-//W3C//DTD SVG 1.1//EN" "http://www.w3.org/Graphics/SVG/1.1/DTD/svg11.dtd"><svg class="icon" width="200px" height="200.00px" viewBox="0 0 1024 1024" version="1.1" xmlns="http://www.w3.org/2000/svg"><path d="M819.940976 956.940698 204.592167 956.940698c-14.145162 0-25.611308-11.466146-25.611308-25.611308l0-839.111083c0-14.145162 11.467169-25.611308 25.611308-25.611308l615.347786 0c14.145162 0 25.611308 11.467169 25.611308 25.611308l0 839.111083C845.552284 945.474552 834.086138 956.940698 819.940976 956.940698zM230.203474 905.71706l564.125171 0L794.328645 117.829616 230.203474 117.829616 230.203474 905.71706z"  /><path d="M708.060863 464.35077 320.433498 464.35077c-14.145162 0-25.611308-11.467169-25.611308-25.611308s11.467169-25.611308 25.611308-25.611308l387.626341 0c14.145162 0 25.611308 11.467169 25.611308 25.611308S722.206024 464.35077 708.060863 464.35077z"  /><path d="M708.060863 320.607972 320.433498 320.607972c-14.145162 0-25.611308-11.467169-25.611308-25.611308s11.467169-25.611308 25.611308-25.611308l387.626341 0c14.145162 0 25.611308 11.467169 25.611308 25.611308S722.206024 320.607972 708.060863 320.607972z"  /><path d="M708.060863 608.093569 320.433498 608.093569c-14.145162 0-25.611308-11.466146-25.611308-25.611308s11.467169-25.611308 25.611308-25.611308l387.626341 0c14.145162 0 25.611308 11.466146 25.611308 25.611308S722.206024 608.093569 708.060863 608.093569z"  /><path d="M708.060863 751.836367 320.433498 751.836367c-14.145162 0-25.611308-11.466146-25.611308-25.611308s11.467169-25.611308 25.611308-25.611308l387.626341 0c14.145162 0 25.611308 11.466146 25.611308 25.611308S722.206024 751.836367 708.060863 751.836367z"  /></svg>