<?xml version="1.0" standalone="no"?><!DOCTYPE svg PUBLIC "-//W3C//DTD SVG 1.1//EN" "http://www.w3.org/Graphics/SVG/1.1/DTD/svg11.dtd"><svg class="icon" width="200px" height="200.00px" viewBox="0 0 1024 1024" version="1.1" xmlns="http://www.w3.org/2000/svg"><path d="M381.24282819 461.27523507H158.0538625C114.09239956 461.27523507 78.02145561 425.20429113 78.02145561 381.24282819V158.0538625C78.02145561 114.09239956 114.09239956 78.02145561 158.0538625 78.02145561h223.18896569C425.20429113 78.02145561 461.27523507 114.09239956 461.27523507 158.0538625v223.18896569C461.27523507 425.20429113 425.20429113 461.27523507 381.24282819 461.27523507zM158.0538625 145.65447552C151.29056052 145.65447552 145.65447552 151.29056052 145.65447552 158.0538625v223.18896569c0 6.76330199 5.63608499 12.39938698 12.39938698 12.39938698h223.18896569c6.76330199 0 12.39938698-5.63608499 12.39938698-12.39938698V158.0538625c0-6.76330199-5.63608499-12.39938698-12.39938698-12.39938698H158.0538625zM389.13334717 942.59689339H165.94438149c-43.96146294 0-80.03240689-36.07094395-80.03240689-80.03240689v-223.18896569c0-43.96146294 36.07094395-80.03240689 80.03240689-80.03240687h223.18896568c43.96146294 0 80.03240689 36.07094395 80.0324069 80.03240687v223.18896569c0 43.96146294-36.07094395 80.03240689-80.0324069 80.03240689z m-223.18896568-315.62075955c-6.76330199 0-12.39938698 5.63608499-12.39938698 12.39938697v223.18896569c0 6.76330199 5.63608499 12.39938698 12.39938698 12.39938699h223.18896568c6.76330199 0 12.39938698-5.63608499 12.39938699-12.39938699v-223.18896569c0-6.76330199-5.63608499-12.39938698-12.39938699-12.39938697H165.94438149zM912.72564293 194.68841494h-321.25684455c-18.59908047 0-33.81650995-15.21742948-33.81650994-33.81650994s15.21742948-33.81650995 33.81650994-33.81650996h321.25684455c18.59908047 0 33.81650995 15.21742948 33.81650996 33.81650996s-15.21742948 33.81650995-33.81650996 33.81650994zM912.72564293 412.24129564h-321.25684455c-18.59908047 0-33.81650995-15.21742948-33.81650994-33.81650995s15.21742948-33.81650995 33.81650994-33.81650995h321.25684455c18.59908047 0 33.81650995 15.21742948 33.81650996 33.81650995s-15.21742948 33.81650995-33.81650996 33.81650995zM912.72564293 678.82811577h-321.25684455c-18.59908047 0-33.81650995-15.21742948-33.81650994-33.81650996s15.21742948-33.81650995 33.81650994-33.81650995h321.25684455c18.59908047 0 33.81650995 15.21742948 33.81650996 33.81650995s-15.21742948 33.81650995-33.81650996 33.81650996zM912.72564293 896.94460496h-321.25684455c-18.59908047 0-33.81650995-15.21742948-33.81650994-33.81650996s15.21742948-33.81650995 33.81650994-33.81650994h321.25684455c18.59908047 0 33.81650995 15.21742948 33.81650996 33.81650994s-15.21742948 33.81650995-33.81650996 33.81650996z" /></svg>