<?xml version="1.0" standalone="no"?><!DOCTYPE svg PUBLIC "-//W3C//DTD SVG 1.1//EN" "http://www.w3.org/Graphics/SVG/1.1/DTD/svg11.dtd"><svg class="icon" width="200px" height="200.00px" viewBox="0 0 1024 1024" version="1.1" xmlns="http://www.w3.org/2000/svg"><path d="M512 552.128c-140.352 0-254.528-114.176-254.528-254.528S371.648 43.136 512 43.136c140.288 0 254.528 114.176 254.528 254.528S652.288 552.128 512 552.128z m0-444.992c-105.024 0-190.528 85.44-190.528 190.528S406.976 488.128 512 488.128c105.088 0 190.528-85.44 190.528-190.528S617.088 107.136 512 107.136zM525.376 980.864a32.064 32.064 0 0 1-25.216-12.224L424.96 872.512a32.32 32.32 0 0 1-6.464-24.704l31.68-204.032a32 32 0 0 1 31.616-27.072h79.232a32 32 0 0 1 31.616 27.136l31.68 204.032a32 32 0 0 1-5.44 23.232l-67.264 96.128a32.128 32.128 0 0 1-25.344 13.632h-0.896z m-41.472-136.896l40.064 51.2 35.136-50.176-25.472-164.224h-24.384l-25.344 163.2z" fill="#231815" /><path d="M957.824 972.288a32 32 0 0 1-31.872-35.328 416.064 416.064 0 0 0-279.872-436.544 31.872 31.872 0 0 1-20.032-40.512 31.872 31.872 0 0 1 40.64-19.968 479.936 479.936 0 0 1 322.88 503.744 31.936 31.936 0 0 1-31.744 28.608zM66.24 972.288a32 32 0 0 1-31.808-28.672 480.512 480.512 0 0 1 322.688-503.68 32 32 0 0 1 20.608 60.544 416 416 0 0 0-279.616 436.416 32 32 0 0 1-31.872 35.392z" fill="#231815" /></svg>